<mxfile host="65bd71144e">
    <diagram name="ページ1" id="3g8QJFHcjlqWtdQAK1fc">
        <mxGraphModel dx="1877" dy="1205" grid="1" gridSize="10" guides="1" tooltips="1" connect="1" arrows="1" fold="1" page="1" pageScale="1" pageWidth="3300" pageHeight="2339" math="0" shadow="0">
            <root>
                <mxCell id="0"/>
                <mxCell id="1" parent="0"/>
                <mxCell id="GKsH9yBoqE3lokd_IIc8-1" value="10.0.0.0/16" style="points=[[0,0],[0.25,0],[0.5,0],[0.75,0],[1,0],[1,0.25],[1,0.5],[1,0.75],[1,1],[0.75,1],[0.5,1],[0.25,1],[0,1],[0,0.75],[0,0.5],[0,0.25]];outlineConnect=0;gradientColor=none;html=1;whiteSpace=wrap;fontSize=12;fontStyle=0;container=0;pointerEvents=0;collapsible=0;recursiveResize=0;shape=mxgraph.aws4.group;grIcon=mxgraph.aws4.group_vpc2;strokeColor=#8C4FFF;fillColor=none;verticalAlign=top;align=left;spacingLeft=30;fontColor=#AAB7B8;dashed=0;allowArrows=0;" parent="1" vertex="1">
                    <mxGeometry x="180" y="180" width="690" height="430" as="geometry"/>
                </mxCell>
                <mxCell id="GKsH9yBoqE3lokd_IIc8-2" value="Public subnet&lt;div&gt;10.0.1.0/24&lt;/div&gt;" style="points=[[0,0],[0.25,0],[0.5,0],[0.75,0],[1,0],[1,0.25],[1,0.5],[1,0.75],[1,1],[0.75,1],[0.5,1],[0.25,1],[0,1],[0,0.75],[0,0.5],[0,0.25]];outlineConnect=0;gradientColor=none;html=1;whiteSpace=wrap;fontSize=12;fontStyle=0;container=0;pointerEvents=0;collapsible=0;recursiveResize=0;shape=mxgraph.aws4.group;grIcon=mxgraph.aws4.group_security_group;grStroke=0;strokeColor=#7AA116;fillColor=#F2F6E8;verticalAlign=top;align=left;spacingLeft=30;fontColor=#248814;dashed=0;allowArrows=0;" parent="1" vertex="1">
                    <mxGeometry x="200" y="450" width="200" height="140" as="geometry"/>
                </mxCell>
                <mxCell id="GKsH9yBoqE3lokd_IIc8-4" value="Public subnet&lt;div&gt;10.0.0.0/24&lt;/div&gt;" style="points=[[0,0],[0.25,0],[0.5,0],[0.75,0],[1,0],[1,0.25],[1,0.5],[1,0.75],[1,1],[0.75,1],[0.5,1],[0.25,1],[0,1],[0,0.75],[0,0.5],[0,0.25]];outlineConnect=0;gradientColor=none;html=1;whiteSpace=wrap;fontSize=12;fontStyle=0;container=0;pointerEvents=0;collapsible=0;recursiveResize=0;shape=mxgraph.aws4.group;grIcon=mxgraph.aws4.group_security_group;grStroke=0;strokeColor=#7AA116;fillColor=#F2F6E8;verticalAlign=top;align=left;spacingLeft=30;fontColor=#248814;dashed=0;allowArrows=0;" parent="1" vertex="1">
                    <mxGeometry x="200" y="220" width="200" height="210" as="geometry"/>
                </mxCell>
                <mxCell id="GKsH9yBoqE3lokd_IIc8-3" value="Private subnet&lt;div&gt;10.0.2.0/24&lt;/div&gt;" style="points=[[0,0],[0.25,0],[0.5,0],[0.75,0],[1,0],[1,0.25],[1,0.5],[1,0.75],[1,1],[0.75,1],[0.5,1],[0.25,1],[0,1],[0,0.75],[0,0.5],[0,0.25]];outlineConnect=0;gradientColor=none;html=1;whiteSpace=wrap;fontSize=12;fontStyle=0;container=0;pointerEvents=0;collapsible=0;recursiveResize=0;shape=mxgraph.aws4.group;grIcon=mxgraph.aws4.group_security_group;grStroke=0;strokeColor=#00A4A6;fillColor=#E6F6F7;verticalAlign=top;align=left;spacingLeft=30;fontColor=#147EBA;dashed=0;" parent="1" vertex="1">
                    <mxGeometry x="420" y="220" width="210" height="210" as="geometry"/>
                </mxCell>
                <mxCell id="GKsH9yBoqE3lokd_IIc8-5" value="Private subnet&lt;div&gt;10.0.4.0/28&lt;/div&gt;" style="points=[[0,0],[0.25,0],[0.5,0],[0.75,0],[1,0],[1,0.25],[1,0.5],[1,0.75],[1,1],[0.75,1],[0.5,1],[0.25,1],[0,1],[0,0.75],[0,0.5],[0,0.25]];outlineConnect=0;gradientColor=none;html=1;whiteSpace=wrap;fontSize=12;fontStyle=0;container=0;pointerEvents=0;collapsible=0;recursiveResize=0;shape=mxgraph.aws4.group;grIcon=mxgraph.aws4.group_security_group;grStroke=0;strokeColor=#00A4A6;fillColor=#E6F6F7;verticalAlign=top;align=left;spacingLeft=30;fontColor=#147EBA;dashed=0;" parent="1" vertex="1">
                    <mxGeometry x="650" y="220" width="200" height="210" as="geometry"/>
                </mxCell>
                <mxCell id="GKsH9yBoqE3lokd_IIc8-6" value="Private subnet&lt;div&gt;10.0.3.0/24&lt;/div&gt;" style="points=[[0,0],[0.25,0],[0.5,0],[0.75,0],[1,0],[1,0.25],[1,0.5],[1,0.75],[1,1],[0.75,1],[0.5,1],[0.25,1],[0,1],[0,0.75],[0,0.5],[0,0.25]];outlineConnect=0;gradientColor=none;html=1;whiteSpace=wrap;fontSize=12;fontStyle=0;container=0;pointerEvents=0;collapsible=0;recursiveResize=0;shape=mxgraph.aws4.group;grIcon=mxgraph.aws4.group_security_group;grStroke=0;strokeColor=#00A4A6;fillColor=#E6F6F7;verticalAlign=top;align=left;spacingLeft=30;fontColor=#147EBA;dashed=0;" parent="1" vertex="1">
                    <mxGeometry x="420" y="450" width="210" height="140" as="geometry"/>
                </mxCell>
                <mxCell id="GKsH9yBoqE3lokd_IIc8-7" value="Private subnet&lt;div&gt;10.0.4.16/28&lt;/div&gt;" style="points=[[0,0],[0.25,0],[0.5,0],[0.75,0],[1,0],[1,0.25],[1,0.5],[1,0.75],[1,1],[0.75,1],[0.5,1],[0.25,1],[0,1],[0,0.75],[0,0.5],[0,0.25]];outlineConnect=0;gradientColor=none;html=1;whiteSpace=wrap;fontSize=12;fontStyle=0;container=0;pointerEvents=0;collapsible=0;recursiveResize=0;shape=mxgraph.aws4.group;grIcon=mxgraph.aws4.group_security_group;grStroke=0;strokeColor=#00A4A6;fillColor=#E6F6F7;verticalAlign=top;align=left;spacingLeft=30;fontColor=#147EBA;dashed=0;" parent="1" vertex="1">
                    <mxGeometry x="650" y="450" width="200" height="140" as="geometry"/>
                </mxCell>
                <mxCell id="GKsH9yBoqE3lokd_IIc8-19" style="edgeStyle=orthogonalEdgeStyle;rounded=1;orthogonalLoop=1;jettySize=auto;html=1;strokeColor=none;curved=0;" parent="1" source="GKsH9yBoqE3lokd_IIc8-18" target="GKsH9yBoqE3lokd_IIc8-10" edge="1">
                    <mxGeometry relative="1" as="geometry"/>
                </mxCell>
                <mxCell id="GKsH9yBoqE3lokd_IIc8-20" style="edgeStyle=orthogonalEdgeStyle;rounded=1;orthogonalLoop=1;jettySize=auto;html=1;curved=0;fontColor=#303030;strokeColor=#303030;" parent="1" source="GKsH9yBoqE3lokd_IIc8-18" target="GKsH9yBoqE3lokd_IIc8-10" edge="1">
                    <mxGeometry relative="1" as="geometry">
                        <Array as="points">
                            <mxPoint x="410" y="439"/>
                            <mxPoint x="410" y="320"/>
                        </Array>
                    </mxGeometry>
                </mxCell>
                <mxCell id="GKsH9yBoqE3lokd_IIc8-22" style="edgeStyle=orthogonalEdgeStyle;curved=0;rounded=1;orthogonalLoop=1;jettySize=auto;html=1;strokeColor=#303030;align=center;verticalAlign=middle;fontFamily=Helvetica;fontSize=11;fontColor=#303030;labelBackgroundColor=default;endArrow=classic;" parent="1" source="GKsH9yBoqE3lokd_IIc8-10" target="GKsH9yBoqE3lokd_IIc8-15" edge="1">
                    <mxGeometry relative="1" as="geometry"/>
                </mxCell>
                <mxCell id="GKsH9yBoqE3lokd_IIc8-33" style="edgeStyle=orthogonalEdgeStyle;curved=0;rounded=1;orthogonalLoop=1;jettySize=auto;html=1;strokeColor=#303030;align=center;verticalAlign=middle;fontFamily=Helvetica;fontSize=11;fontColor=#303030;labelBackgroundColor=default;endArrow=classic;targetPerimeterSpacing=21;" parent="1" source="GKsH9yBoqE3lokd_IIc8-10" target="GKsH9yBoqE3lokd_IIc8-32" edge="1">
                    <mxGeometry relative="1" as="geometry"/>
                </mxCell>
                <mxCell id="5" style="edgeStyle=orthogonalEdgeStyle;html=1;" edge="1" parent="1" source="GKsH9yBoqE3lokd_IIc8-10" target="2">
                    <mxGeometry relative="1" as="geometry">
                        <Array as="points">
                            <mxPoint x="450" y="304"/>
                            <mxPoint x="450" y="304"/>
                        </Array>
                    </mxGeometry>
                </mxCell>
                <mxCell id="GKsH9yBoqE3lokd_IIc8-10" value="Amazon ECS&#10;(TaskRoke: AdministratorAccess)" style="sketch=0;outlineConnect=0;fontColor=#303030;gradientColor=none;fillColor=#ED7100;strokeColor=none;dashed=0;verticalLabelPosition=bottom;verticalAlign=top;align=center;fontSize=12;fontStyle=0;aspect=fixed;pointerEvents=1;shape=mxgraph.aws4.container_2;container=0;" parent="1" vertex="1">
                    <mxGeometry x="494.78" y="287.25" width="70.45" height="45.5" as="geometry"/>
                </mxCell>
                <mxCell id="GKsH9yBoqE3lokd_IIc8-15" value="Amazon Aurora MySQL&#10;(Serverless V2)" style="sketch=0;outlineConnect=0;fontColor=#303030;gradientColor=none;fillColor=#C925D1;strokeColor=none;dashed=0;verticalLabelPosition=bottom;verticalAlign=top;align=center;fontSize=12;fontStyle=0;aspect=fixed;pointerEvents=1;shape=mxgraph.aws4.aurora_instance;container=0;" parent="1" vertex="1">
                    <mxGeometry x="711" y="271" width="78" height="78" as="geometry"/>
                </mxCell>
                <mxCell id="GKsH9yBoqE3lokd_IIc8-28" value="Region (ap-northeast-1)" style="points=[[0,0],[0.25,0],[0.5,0],[0.75,0],[1,0],[1,0.25],[1,0.5],[1,0.75],[1,1],[0.75,1],[0.5,1],[0.25,1],[0,1],[0,0.75],[0,0.5],[0,0.25]];outlineConnect=0;gradientColor=none;html=1;whiteSpace=wrap;fontSize=12;fontStyle=0;container=1;pointerEvents=0;collapsible=0;recursiveResize=0;shape=mxgraph.aws4.group;grIcon=mxgraph.aws4.group_region;strokeColor=#00A4A6;fillColor=none;verticalAlign=top;align=left;spacingLeft=30;fontColor=#147EBA;dashed=1;fontFamily=Helvetica;labelBackgroundColor=none;" parent="1" vertex="1">
                    <mxGeometry x="160" y="40" width="730" height="590" as="geometry"/>
                </mxCell>
                <mxCell id="GKsH9yBoqE3lokd_IIc8-12" value="AW Secrets Manager" style="sketch=0;points=[[0,0,0],[0.25,0,0],[0.5,0,0],[0.75,0,0],[1,0,0],[0,1,0],[0.25,1,0],[0.5,1,0],[0.75,1,0],[1,1,0],[0,0.25,0],[0,0.5,0],[0,0.75,0],[1,0.25,0],[1,0.5,0],[1,0.75,0]];outlineConnect=0;fontColor=#303030;fillColor=#DD344C;strokeColor=#ffffff;dashed=0;verticalLabelPosition=bottom;verticalAlign=top;align=center;fontSize=12;fontStyle=0;aspect=fixed;shape=mxgraph.aws4.resourceIcon;resIcon=mxgraph.aws4.secrets_manager;container=0;" parent="GKsH9yBoqE3lokd_IIc8-28" vertex="1">
                    <mxGeometry x="445" y="23" width="68" height="68" as="geometry"/>
                </mxCell>
                <mxCell id="GKsH9yBoqE3lokd_IIc8-32" value="Amazon ECR" style="sketch=0;points=[[0,0,0],[0.25,0,0],[0.5,0,0],[0.75,0,0],[1,0,0],[0,1,0],[0.25,1,0],[0.5,1,0],[0.75,1,0],[1,1,0],[0,0.25,0],[0,0.5,0],[0,0.75,0],[1,0.25,0],[1,0.5,0],[1,0.75,0]];outlineConnect=0;fontColor=#303030;fillColor=#ED7100;strokeColor=#ffffff;dashed=0;verticalLabelPosition=bottom;verticalAlign=top;align=center;fontSize=12;fontStyle=0;aspect=fixed;shape=mxgraph.aws4.resourceIcon;resIcon=mxgraph.aws4.ecr;fontFamily=Helvetica;labelBackgroundColor=none;" parent="GKsH9yBoqE3lokd_IIc8-28" vertex="1">
                    <mxGeometry x="337" y="24" width="66" height="66" as="geometry"/>
                </mxCell>
                <mxCell id="GKsH9yBoqE3lokd_IIc8-18" value="ALB" style="sketch=0;outlineConnect=0;fontColor=#303030;gradientColor=none;fillColor=#8C4FFF;strokeColor=none;dashed=0;verticalLabelPosition=bottom;verticalAlign=top;align=center;fontSize=12;fontStyle=0;aspect=fixed;pointerEvents=1;shape=mxgraph.aws4.application_load_balancer;container=0;" parent="GKsH9yBoqE3lokd_IIc8-28" vertex="1">
                    <mxGeometry x="150" y="360" width="78" height="78" as="geometry"/>
                </mxCell>
                <mxCell id="2" value="NAT Gateway" style="sketch=0;outlineConnect=0;fontColor=#232F3E;gradientColor=none;fillColor=#4D27AA;strokeColor=none;dashed=0;verticalLabelPosition=bottom;verticalAlign=top;align=center;html=1;fontSize=12;fontStyle=0;aspect=fixed;pointerEvents=1;shape=mxgraph.aws4.nat_gateway;" vertex="1" parent="GKsH9yBoqE3lokd_IIc8-28">
                    <mxGeometry x="110" y="240" width="48" height="48" as="geometry"/>
                </mxCell>
                <mxCell id="3" value="NAT Gateway" style="sketch=0;outlineConnect=0;fontColor=#232F3E;gradientColor=none;fillColor=#4D27AA;strokeColor=none;dashed=0;verticalLabelPosition=bottom;verticalAlign=top;align=center;html=1;fontSize=12;fontStyle=0;aspect=fixed;pointerEvents=1;shape=mxgraph.aws4.nat_gateway;" vertex="1" parent="GKsH9yBoqE3lokd_IIc8-28">
                    <mxGeometry x="110" y="460" width="48" height="48" as="geometry"/>
                </mxCell>
                <mxCell id="GKsH9yBoqE3lokd_IIc8-14" style="rounded=1;orthogonalLoop=1;jettySize=auto;html=1;edgeStyle=orthogonalEdgeStyle;curved=0;targetPerimeterSpacing=21;fontColor=#303030;strokeColor=#303030;" parent="1" source="GKsH9yBoqE3lokd_IIc8-10" target="GKsH9yBoqE3lokd_IIc8-12" edge="1">
                    <mxGeometry relative="1" as="geometry">
                        <Array as="points">
                            <mxPoint x="640" y="300"/>
                        </Array>
                    </mxGeometry>
                </mxCell>
                <mxCell id="GKsH9yBoqE3lokd_IIc8-30" style="edgeStyle=orthogonalEdgeStyle;curved=0;rounded=1;orthogonalLoop=1;jettySize=auto;html=1;strokeColor=#303030;align=center;verticalAlign=middle;fontFamily=Helvetica;fontSize=11;fontColor=#303030;labelBackgroundColor=default;endArrow=classic;" parent="1" source="GKsH9yBoqE3lokd_IIc8-29" target="GKsH9yBoqE3lokd_IIc8-18" edge="1">
                    <mxGeometry relative="1" as="geometry"/>
                </mxCell>
                <mxCell id="GKsH9yBoqE3lokd_IIc8-31" value="http:80&lt;div&gt;(no ssl)&lt;/div&gt;" style="edgeLabel;html=1;align=center;verticalAlign=middle;resizable=0;points=[];fontFamily=Helvetica;fontSize=14;fontColor=#303030;labelBackgroundColor=none;" parent="GKsH9yBoqE3lokd_IIc8-30" connectable="0" vertex="1">
                    <mxGeometry x="-0.6139" y="-2" relative="1" as="geometry">
                        <mxPoint x="-12" y="-25" as="offset"/>
                    </mxGeometry>
                </mxCell>
                <mxCell id="GKsH9yBoqE3lokd_IIc8-29" value="Internet" style="sketch=0;outlineConnect=0;fontColor=#303030;gradientColor=none;strokeColor=#232F3E;fillColor=none;dashed=0;verticalLabelPosition=bottom;verticalAlign=top;align=center;html=1;fontSize=12;fontStyle=0;aspect=fixed;shape=mxgraph.aws4.resourceIcon;resIcon=mxgraph.aws4.internet;fontFamily=Helvetica;labelBackgroundColor=none;" parent="1" vertex="1">
                    <mxGeometry x="40" y="409" width="60" height="60" as="geometry"/>
                </mxCell>
                <mxCell id="6" style="edgeStyle=orthogonalEdgeStyle;html=1;" edge="1" parent="1" source="2" target="GKsH9yBoqE3lokd_IIc8-29">
                    <mxGeometry relative="1" as="geometry"/>
                </mxCell>
            </root>
        </mxGraphModel>
    </diagram>
</mxfile>